<mxfile host="Electron" agent="Mozilla/5.0 (Macintosh; Intel Mac OS X 10_15_7) AppleWebKit/537.36 (KHTML, like Gecko) draw.io/26.1.1 Chrome/132.0.6834.210 Electron/34.3.3 Safari/537.36" version="26.1.1">
  <diagram name="Page-1" id="8n49wl8V23JxTuPEfMkb">
    <mxGraphModel dx="1158" dy="706" grid="1" gridSize="10" guides="1" tooltips="1" connect="1" arrows="1" fold="1" page="1" pageScale="1" pageWidth="850" pageHeight="1100" math="0" shadow="0">
      <root>
        <mxCell id="0" />
        <mxCell id="1" parent="0" />
        <mxCell id="8dnS2Y00dvAyXZscMJ9w-1" value="MOTORBIKE" style="rounded=0;whiteSpace=wrap;html=1;" parent="1" vertex="1">
          <mxGeometry x="330" y="260" width="190" height="50" as="geometry" />
        </mxCell>
        <mxCell id="8dnS2Y00dvAyXZscMJ9w-2" value="Brand" style="ellipse;whiteSpace=wrap;html=1;" parent="1" vertex="1">
          <mxGeometry x="260" y="180" width="90" height="50" as="geometry" />
        </mxCell>
        <mxCell id="8dnS2Y00dvAyXZscMJ9w-3" value="&lt;u&gt;ID&lt;/u&gt;" style="ellipse;whiteSpace=wrap;html=1;" parent="1" vertex="1">
          <mxGeometry x="170" y="240" width="100" height="50" as="geometry" />
        </mxCell>
        <mxCell id="8dnS2Y00dvAyXZscMJ9w-5" value="Name" style="ellipse;whiteSpace=wrap;html=1;" parent="1" vertex="1">
          <mxGeometry x="390" y="180" width="90" height="50" as="geometry" />
        </mxCell>
        <mxCell id="8dnS2Y00dvAyXZscMJ9w-6" value="PhoneNumber" style="ellipse;whiteSpace=wrap;html=1;" parent="1" vertex="1">
          <mxGeometry x="510" y="180" width="110" height="50" as="geometry" />
        </mxCell>
        <mxCell id="8dnS2Y00dvAyXZscMJ9w-7" value="Address" style="ellipse;whiteSpace=wrap;html=1;" parent="1" vertex="1">
          <mxGeometry x="600" y="240" width="110" height="50" as="geometry" />
        </mxCell>
        <mxCell id="8dnS2Y00dvAyXZscMJ9w-11" value="" style="endArrow=none;html=1;rounded=0;entryX=0;entryY=0.5;entryDx=0;entryDy=0;" parent="1" target="8dnS2Y00dvAyXZscMJ9w-1" edge="1">
          <mxGeometry width="50" height="50" relative="1" as="geometry">
            <mxPoint x="270" y="270" as="sourcePoint" />
            <mxPoint x="320" y="220" as="targetPoint" />
          </mxGeometry>
        </mxCell>
        <mxCell id="8dnS2Y00dvAyXZscMJ9w-13" value="" style="endArrow=none;html=1;rounded=0;" parent="1" edge="1">
          <mxGeometry width="50" height="50" relative="1" as="geometry">
            <mxPoint x="320" y="230" as="sourcePoint" />
            <mxPoint x="390" y="260" as="targetPoint" />
          </mxGeometry>
        </mxCell>
        <mxCell id="8dnS2Y00dvAyXZscMJ9w-14" value="" style="endArrow=none;html=1;rounded=0;entryX=0.5;entryY=0;entryDx=0;entryDy=0;" parent="1" target="8dnS2Y00dvAyXZscMJ9w-1" edge="1">
          <mxGeometry width="50" height="50" relative="1" as="geometry">
            <mxPoint x="425" y="230" as="sourcePoint" />
            <mxPoint x="495" y="260" as="targetPoint" />
          </mxGeometry>
        </mxCell>
        <mxCell id="8dnS2Y00dvAyXZscMJ9w-15" value="" style="endArrow=none;html=1;rounded=0;entryX=0.75;entryY=0;entryDx=0;entryDy=0;" parent="1" target="8dnS2Y00dvAyXZscMJ9w-1" edge="1">
          <mxGeometry width="50" height="50" relative="1" as="geometry">
            <mxPoint x="550" y="230" as="sourcePoint" />
            <mxPoint x="620" y="260" as="targetPoint" />
          </mxGeometry>
        </mxCell>
        <mxCell id="8dnS2Y00dvAyXZscMJ9w-16" value="" style="endArrow=none;html=1;rounded=0;entryX=0;entryY=0.5;entryDx=0;entryDy=0;" parent="1" target="8dnS2Y00dvAyXZscMJ9w-7" edge="1">
          <mxGeometry width="50" height="50" relative="1" as="geometry">
            <mxPoint x="520" y="290" as="sourcePoint" />
            <mxPoint x="590" y="320" as="targetPoint" />
          </mxGeometry>
        </mxCell>
        <mxCell id="8dnS2Y00dvAyXZscMJ9w-17" value="WORKER" style="rounded=0;whiteSpace=wrap;html=1;" parent="1" vertex="1">
          <mxGeometry x="750" y="300" width="190" height="50" as="geometry" />
        </mxCell>
        <mxCell id="8dnS2Y00dvAyXZscMJ9w-18" value="&lt;u&gt;ID&lt;/u&gt;" style="ellipse;whiteSpace=wrap;html=1;" parent="1" vertex="1">
          <mxGeometry x="1000" y="320" width="100" height="50" as="geometry" />
        </mxCell>
        <mxCell id="8dnS2Y00dvAyXZscMJ9w-19" value="Name" style="ellipse;whiteSpace=wrap;html=1;" parent="1" vertex="1">
          <mxGeometry x="760" y="200" width="90" height="50" as="geometry" />
        </mxCell>
        <mxCell id="8dnS2Y00dvAyXZscMJ9w-20" value="PhoneNumber" style="ellipse;whiteSpace=wrap;html=1;" parent="1" vertex="1">
          <mxGeometry x="980" y="260" width="110" height="50" as="geometry" />
        </mxCell>
        <mxCell id="8dnS2Y00dvAyXZscMJ9w-24" value="" style="endArrow=none;html=1;rounded=0;entryX=0;entryY=0.5;entryDx=0;entryDy=0;" parent="1" target="8dnS2Y00dvAyXZscMJ9w-18" edge="1">
          <mxGeometry width="50" height="50" relative="1" as="geometry">
            <mxPoint x="940" y="324.5" as="sourcePoint" />
            <mxPoint x="1000" y="324.5" as="targetPoint" />
          </mxGeometry>
        </mxCell>
        <mxCell id="8dnS2Y00dvAyXZscMJ9w-26" value="MAINTENANCE_WORK" style="rounded=0;whiteSpace=wrap;html=1;" parent="1" vertex="1">
          <mxGeometry x="930" y="600" width="190" height="50" as="geometry" />
        </mxCell>
        <mxCell id="8dnS2Y00dvAyXZscMJ9w-27" value="&lt;u&gt;ID&lt;/u&gt;" style="ellipse;whiteSpace=wrap;html=1;" parent="1" vertex="1">
          <mxGeometry x="840" y="690" width="100" height="50" as="geometry" />
        </mxCell>
        <mxCell id="8dnS2Y00dvAyXZscMJ9w-28" value="Name" style="ellipse;whiteSpace=wrap;html=1;" parent="1" vertex="1">
          <mxGeometry x="980" y="690" width="90" height="50" as="geometry" />
        </mxCell>
        <mxCell id="8dnS2Y00dvAyXZscMJ9w-29" value="TIme" style="ellipse;whiteSpace=wrap;html=1;" parent="1" vertex="1">
          <mxGeometry x="1080" y="700" width="90" height="50" as="geometry" />
        </mxCell>
        <mxCell id="8dnS2Y00dvAyXZscMJ9w-32" value="MAINTENANCE_TICKET" style="rounded=0;whiteSpace=wrap;html=1;" parent="1" vertex="1">
          <mxGeometry x="530" y="570" width="190" height="50" as="geometry" />
        </mxCell>
        <mxCell id="8dnS2Y00dvAyXZscMJ9w-33" value="&lt;u&gt;ID&lt;/u&gt;" style="ellipse;whiteSpace=wrap;html=1;" parent="1" vertex="1">
          <mxGeometry x="520" y="660" width="100" height="50" as="geometry" />
        </mxCell>
        <mxCell id="8dnS2Y00dvAyXZscMJ9w-34" value="Date" style="ellipse;whiteSpace=wrap;html=1;" parent="1" vertex="1">
          <mxGeometry x="640" y="670" width="90" height="50" as="geometry" />
        </mxCell>
        <mxCell id="8dnS2Y00dvAyXZscMJ9w-36" value="" style="endArrow=none;html=1;rounded=0;exitX=0.5;exitY=0;exitDx=0;exitDy=0;" parent="1" source="8dnS2Y00dvAyXZscMJ9w-27" edge="1">
          <mxGeometry width="50" height="50" relative="1" as="geometry">
            <mxPoint x="890" y="700" as="sourcePoint" />
            <mxPoint x="940" y="650" as="targetPoint" />
          </mxGeometry>
        </mxCell>
        <mxCell id="8dnS2Y00dvAyXZscMJ9w-44" value="Level" style="ellipse;whiteSpace=wrap;html=1;" parent="1" vertex="1">
          <mxGeometry x="890" y="210" width="110" height="50" as="geometry" />
        </mxCell>
        <mxCell id="8dnS2Y00dvAyXZscMJ9w-48" value="" style="endArrow=none;html=1;rounded=0;" parent="1" edge="1">
          <mxGeometry width="50" height="50" relative="1" as="geometry">
            <mxPoint x="430" y="310" as="sourcePoint" />
            <mxPoint x="500" y="390" as="targetPoint" />
          </mxGeometry>
        </mxCell>
        <mxCell id="8dnS2Y00dvAyXZscMJ9w-50" value="HAS" style="rhombus;whiteSpace=wrap;html=1;" parent="1" vertex="1">
          <mxGeometry x="470" y="380" width="80" height="80" as="geometry" />
        </mxCell>
        <mxCell id="8dnS2Y00dvAyXZscMJ9w-51" value="" style="endArrow=none;html=1;rounded=0;exitX=0.5;exitY=0;exitDx=0;exitDy=0;" parent="1" source="8dnS2Y00dvAyXZscMJ9w-32" target="8dnS2Y00dvAyXZscMJ9w-50" edge="1">
          <mxGeometry width="50" height="50" relative="1" as="geometry">
            <mxPoint x="485" y="490" as="sourcePoint" />
            <mxPoint x="535" y="440" as="targetPoint" />
          </mxGeometry>
        </mxCell>
        <mxCell id="8dnS2Y00dvAyXZscMJ9w-52" value="" style="endArrow=none;html=1;rounded=0;exitX=0.5;exitY=0;exitDx=0;exitDy=0;" parent="1" source="8dnS2Y00dvAyXZscMJ9w-33" edge="1">
          <mxGeometry width="50" height="50" relative="1" as="geometry">
            <mxPoint x="560" y="670" as="sourcePoint" />
            <mxPoint x="610" y="620" as="targetPoint" />
          </mxGeometry>
        </mxCell>
        <mxCell id="8dnS2Y00dvAyXZscMJ9w-53" value="" style="endArrow=none;html=1;rounded=0;" parent="1" edge="1">
          <mxGeometry width="50" height="50" relative="1" as="geometry">
            <mxPoint x="640" y="620" as="sourcePoint" />
            <mxPoint x="690" y="670" as="targetPoint" />
          </mxGeometry>
        </mxCell>
        <mxCell id="8dnS2Y00dvAyXZscMJ9w-54" value="" style="endArrow=none;html=1;rounded=0;" parent="1" edge="1">
          <mxGeometry width="50" height="50" relative="1" as="geometry">
            <mxPoint x="690" y="620" as="sourcePoint" />
            <mxPoint x="756.5747171977121" y="665.6191253620761" as="targetPoint" />
          </mxGeometry>
        </mxCell>
        <mxCell id="8dnS2Y00dvAyXZscMJ9w-55" value="1" style="text;html=1;align=center;verticalAlign=middle;whiteSpace=wrap;rounded=0;" parent="1" vertex="1">
          <mxGeometry x="450" y="320" width="60" height="30" as="geometry" />
        </mxCell>
        <mxCell id="8dnS2Y00dvAyXZscMJ9w-56" value="N" style="text;html=1;align=center;verticalAlign=middle;whiteSpace=wrap;rounded=0;" parent="1" vertex="1">
          <mxGeometry x="550" y="470" width="60" height="30" as="geometry" />
        </mxCell>
        <mxCell id="8dnS2Y00dvAyXZscMJ9w-65" value="" style="endArrow=none;html=1;rounded=0;exitX=0.5;exitY=0;exitDx=0;exitDy=0;" parent="1" source="8dnS2Y00dvAyXZscMJ9w-28" edge="1">
          <mxGeometry width="50" height="50" relative="1" as="geometry">
            <mxPoint x="980" y="690" as="sourcePoint" />
            <mxPoint x="1000" y="650" as="targetPoint" />
          </mxGeometry>
        </mxCell>
        <mxCell id="8dnS2Y00dvAyXZscMJ9w-67" value="" style="endArrow=none;html=1;rounded=0;exitX=0.433;exitY=0.06;exitDx=0;exitDy=0;exitPerimeter=0;" parent="1" source="8dnS2Y00dvAyXZscMJ9w-29" edge="1">
          <mxGeometry width="50" height="50" relative="1" as="geometry">
            <mxPoint x="1070" y="700" as="sourcePoint" />
            <mxPoint x="1050" y="650" as="targetPoint" />
          </mxGeometry>
        </mxCell>
        <mxCell id="8dnS2Y00dvAyXZscMJ9w-68" value="" style="endArrow=none;html=1;rounded=0;entryX=0.5;entryY=0;entryDx=0;entryDy=0;" parent="1" target="6n0CZiTLzthfLFDjfn90-1" edge="1">
          <mxGeometry width="50" height="50" relative="1" as="geometry">
            <mxPoint x="1110" y="650" as="sourcePoint" />
            <mxPoint x="1180" y="680" as="targetPoint" />
          </mxGeometry>
        </mxCell>
        <mxCell id="8dnS2Y00dvAyXZscMJ9w-69" value="HAS" style="rhombus;whiteSpace=wrap;html=1;" parent="1" vertex="1">
          <mxGeometry x="780" y="570" width="80" height="80" as="geometry" />
        </mxCell>
        <mxCell id="8dnS2Y00dvAyXZscMJ9w-70" value="" style="endArrow=none;html=1;rounded=0;entryX=0;entryY=0.5;entryDx=0;entryDy=0;" parent="1" target="8dnS2Y00dvAyXZscMJ9w-69" edge="1">
          <mxGeometry width="50" height="50" relative="1" as="geometry">
            <mxPoint x="720" y="590" as="sourcePoint" />
            <mxPoint x="790" y="670" as="targetPoint" />
          </mxGeometry>
        </mxCell>
        <mxCell id="8dnS2Y00dvAyXZscMJ9w-71" value="" style="endArrow=none;html=1;rounded=0;entryX=0;entryY=0.5;entryDx=0;entryDy=0;exitX=1;exitY=0.5;exitDx=0;exitDy=0;" parent="1" source="8dnS2Y00dvAyXZscMJ9w-69" target="8dnS2Y00dvAyXZscMJ9w-26" edge="1">
          <mxGeometry width="50" height="50" relative="1" as="geometry">
            <mxPoint x="860" y="620" as="sourcePoint" />
            <mxPoint x="910" y="570" as="targetPoint" />
          </mxGeometry>
        </mxCell>
        <mxCell id="8dnS2Y00dvAyXZscMJ9w-72" value="M" style="text;html=1;align=center;verticalAlign=middle;whiteSpace=wrap;rounded=0;" parent="1" vertex="1">
          <mxGeometry x="720" y="570" width="60" height="30" as="geometry" />
        </mxCell>
        <mxCell id="8dnS2Y00dvAyXZscMJ9w-73" value="N" style="text;html=1;align=center;verticalAlign=middle;whiteSpace=wrap;rounded=0;" parent="1" vertex="1">
          <mxGeometry x="870" y="590" width="60" height="30" as="geometry" />
        </mxCell>
        <mxCell id="8dnS2Y00dvAyXZscMJ9w-74" value="" style="endArrow=none;html=1;rounded=0;" parent="1" edge="1">
          <mxGeometry width="50" height="50" relative="1" as="geometry">
            <mxPoint x="850" y="300" as="sourcePoint" />
            <mxPoint x="900" y="250" as="targetPoint" />
          </mxGeometry>
        </mxCell>
        <mxCell id="8dnS2Y00dvAyXZscMJ9w-75" value="" style="endArrow=none;html=1;rounded=0;" parent="1" edge="1">
          <mxGeometry width="50" height="50" relative="1" as="geometry">
            <mxPoint x="850" y="300" as="sourcePoint" />
            <mxPoint x="980" y="280" as="targetPoint" />
          </mxGeometry>
        </mxCell>
        <mxCell id="8dnS2Y00dvAyXZscMJ9w-76" value="" style="endArrow=none;html=1;rounded=0;" parent="1" edge="1">
          <mxGeometry width="50" height="50" relative="1" as="geometry">
            <mxPoint x="850" y="300" as="sourcePoint" />
            <mxPoint x="810" y="250" as="targetPoint" />
          </mxGeometry>
        </mxCell>
        <mxCell id="8dnS2Y00dvAyXZscMJ9w-77" value="" style="endArrow=none;html=1;rounded=0;" parent="1" edge="1">
          <mxGeometry width="50" height="50" relative="1" as="geometry">
            <mxPoint x="830" y="350" as="sourcePoint" />
            <mxPoint x="870" y="430" as="targetPoint" />
          </mxGeometry>
        </mxCell>
        <mxCell id="8dnS2Y00dvAyXZscMJ9w-78" value="DOES" style="rhombus;whiteSpace=wrap;html=1;" parent="1" vertex="1">
          <mxGeometry x="840" y="410" width="80" height="80" as="geometry" />
        </mxCell>
        <mxCell id="8dnS2Y00dvAyXZscMJ9w-79" value="" style="endArrow=none;html=1;rounded=0;entryX=0.353;entryY=-0.02;entryDx=0;entryDy=0;entryPerimeter=0;" parent="1" target="8dnS2Y00dvAyXZscMJ9w-26" edge="1">
          <mxGeometry width="50" height="50" relative="1" as="geometry">
            <mxPoint x="900" y="470" as="sourcePoint" />
            <mxPoint x="940" y="550" as="targetPoint" />
          </mxGeometry>
        </mxCell>
        <mxCell id="8dnS2Y00dvAyXZscMJ9w-80" value="Motor/Worker/Maintanance" style="shape=table;startSize=30;container=1;collapsible=0;childLayout=tableLayout;strokeColor=default;fontSize=16;" parent="1" vertex="1">
          <mxGeometry x="100" y="400" width="220" height="190" as="geometry" />
        </mxCell>
        <mxCell id="8dnS2Y00dvAyXZscMJ9w-81" value="" style="shape=tableRow;horizontal=0;startSize=0;swimlaneHead=0;swimlaneBody=0;strokeColor=inherit;top=0;left=0;bottom=0;right=0;collapsible=0;dropTarget=0;fillColor=none;points=[[0,0.5],[1,0.5]];portConstraint=eastwest;fontSize=16;" parent="8dnS2Y00dvAyXZscMJ9w-80" vertex="1">
          <mxGeometry y="30" width="220" height="53" as="geometry" />
        </mxCell>
        <mxCell id="8dnS2Y00dvAyXZscMJ9w-82" value="Bike1" style="shape=partialRectangle;html=1;whiteSpace=wrap;connectable=0;strokeColor=inherit;overflow=hidden;fillColor=none;top=0;left=0;bottom=0;right=0;pointerEvents=1;fontSize=16;" parent="8dnS2Y00dvAyXZscMJ9w-81" vertex="1">
          <mxGeometry width="73" height="53" as="geometry">
            <mxRectangle width="73" height="53" as="alternateBounds" />
          </mxGeometry>
        </mxCell>
        <mxCell id="8dnS2Y00dvAyXZscMJ9w-83" value="Worker1" style="shape=partialRectangle;html=1;whiteSpace=wrap;connectable=0;strokeColor=inherit;overflow=hidden;fillColor=none;top=0;left=0;bottom=0;right=0;pointerEvents=1;fontSize=16;" parent="8dnS2Y00dvAyXZscMJ9w-81" vertex="1">
          <mxGeometry x="73" width="74" height="53" as="geometry">
            <mxRectangle width="74" height="53" as="alternateBounds" />
          </mxGeometry>
        </mxCell>
        <mxCell id="8dnS2Y00dvAyXZscMJ9w-84" value="M01" style="shape=partialRectangle;html=1;whiteSpace=wrap;connectable=0;strokeColor=inherit;overflow=hidden;fillColor=none;top=0;left=0;bottom=0;right=0;pointerEvents=1;fontSize=16;" parent="8dnS2Y00dvAyXZscMJ9w-81" vertex="1">
          <mxGeometry x="147" width="73" height="53" as="geometry">
            <mxRectangle width="73" height="53" as="alternateBounds" />
          </mxGeometry>
        </mxCell>
        <mxCell id="8dnS2Y00dvAyXZscMJ9w-85" value="" style="shape=tableRow;horizontal=0;startSize=0;swimlaneHead=0;swimlaneBody=0;strokeColor=inherit;top=0;left=0;bottom=0;right=0;collapsible=0;dropTarget=0;fillColor=none;points=[[0,0.5],[1,0.5]];portConstraint=eastwest;fontSize=16;" parent="8dnS2Y00dvAyXZscMJ9w-80" vertex="1">
          <mxGeometry y="83" width="220" height="54" as="geometry" />
        </mxCell>
        <mxCell id="8dnS2Y00dvAyXZscMJ9w-86" value="Bike2" style="shape=partialRectangle;html=1;whiteSpace=wrap;connectable=0;strokeColor=inherit;overflow=hidden;fillColor=none;top=0;left=0;bottom=0;right=0;pointerEvents=1;fontSize=16;" parent="8dnS2Y00dvAyXZscMJ9w-85" vertex="1">
          <mxGeometry width="73" height="54" as="geometry">
            <mxRectangle width="73" height="54" as="alternateBounds" />
          </mxGeometry>
        </mxCell>
        <mxCell id="8dnS2Y00dvAyXZscMJ9w-87" value="Worker2" style="shape=partialRectangle;html=1;whiteSpace=wrap;connectable=0;strokeColor=inherit;overflow=hidden;fillColor=none;top=0;left=0;bottom=0;right=0;pointerEvents=1;fontSize=16;" parent="8dnS2Y00dvAyXZscMJ9w-85" vertex="1">
          <mxGeometry x="73" width="74" height="54" as="geometry">
            <mxRectangle width="74" height="54" as="alternateBounds" />
          </mxGeometry>
        </mxCell>
        <mxCell id="8dnS2Y00dvAyXZscMJ9w-88" value="M02" style="shape=partialRectangle;html=1;whiteSpace=wrap;connectable=0;strokeColor=inherit;overflow=hidden;fillColor=none;top=0;left=0;bottom=0;right=0;pointerEvents=1;fontSize=16;" parent="8dnS2Y00dvAyXZscMJ9w-85" vertex="1">
          <mxGeometry x="147" width="73" height="54" as="geometry">
            <mxRectangle width="73" height="54" as="alternateBounds" />
          </mxGeometry>
        </mxCell>
        <mxCell id="8dnS2Y00dvAyXZscMJ9w-89" value="" style="shape=tableRow;horizontal=0;startSize=0;swimlaneHead=0;swimlaneBody=0;strokeColor=inherit;top=0;left=0;bottom=0;right=0;collapsible=0;dropTarget=0;fillColor=none;points=[[0,0.5],[1,0.5]];portConstraint=eastwest;fontSize=16;" parent="8dnS2Y00dvAyXZscMJ9w-80" vertex="1">
          <mxGeometry y="137" width="220" height="53" as="geometry" />
        </mxCell>
        <mxCell id="8dnS2Y00dvAyXZscMJ9w-90" value="" style="shape=partialRectangle;html=1;whiteSpace=wrap;connectable=0;strokeColor=inherit;overflow=hidden;fillColor=none;top=0;left=0;bottom=0;right=0;pointerEvents=1;fontSize=16;" parent="8dnS2Y00dvAyXZscMJ9w-89" vertex="1">
          <mxGeometry width="73" height="53" as="geometry">
            <mxRectangle width="73" height="53" as="alternateBounds" />
          </mxGeometry>
        </mxCell>
        <mxCell id="8dnS2Y00dvAyXZscMJ9w-91" value="" style="shape=partialRectangle;html=1;whiteSpace=wrap;connectable=0;strokeColor=inherit;overflow=hidden;fillColor=none;top=0;left=0;bottom=0;right=0;pointerEvents=1;fontSize=16;" parent="8dnS2Y00dvAyXZscMJ9w-89" vertex="1">
          <mxGeometry x="73" width="74" height="53" as="geometry">
            <mxRectangle width="74" height="53" as="alternateBounds" />
          </mxGeometry>
        </mxCell>
        <mxCell id="8dnS2Y00dvAyXZscMJ9w-92" value="" style="shape=partialRectangle;html=1;whiteSpace=wrap;connectable=0;strokeColor=inherit;overflow=hidden;fillColor=none;top=0;left=0;bottom=0;right=0;pointerEvents=1;fontSize=16;" parent="8dnS2Y00dvAyXZscMJ9w-89" vertex="1">
          <mxGeometry x="147" width="73" height="53" as="geometry">
            <mxRectangle width="73" height="53" as="alternateBounds" />
          </mxGeometry>
        </mxCell>
        <mxCell id="8dnS2Y00dvAyXZscMJ9w-93" value="1" style="text;html=1;align=center;verticalAlign=middle;whiteSpace=wrap;rounded=0;" parent="1" vertex="1">
          <mxGeometry x="840" y="370" width="60" height="30" as="geometry" />
        </mxCell>
        <mxCell id="8dnS2Y00dvAyXZscMJ9w-94" value="N" style="text;html=1;align=center;verticalAlign=middle;whiteSpace=wrap;rounded=0;" parent="1" vertex="1">
          <mxGeometry x="950" y="520" width="60" height="30" as="geometry" />
        </mxCell>
        <mxCell id="8dnS2Y00dvAyXZscMJ9w-95" value="&lt;h1 style=&quot;margin-top: 0px;&quot;&gt;CASE:&lt;/h1&gt;&lt;div&gt;The first time a motorbike is sent to repairing, a maintenance ticket is given to the motorbike, then a worker is assigned for that motorbike with the given maintenance works, the maintenance works are also included in the maintenance ticket&lt;/div&gt;" style="text;html=1;whiteSpace=wrap;overflow=hidden;rounded=0;" parent="1" vertex="1">
          <mxGeometry x="100" y="625" width="255" height="160" as="geometry" />
        </mxCell>
        <mxCell id="8dnS2Y00dvAyXZscMJ9w-96" value="" style="endArrow=none;html=1;rounded=0;exitX=0.5;exitY=0;exitDx=0;exitDy=0;" parent="1" edge="1">
          <mxGeometry width="50" height="50" relative="1" as="geometry">
            <mxPoint x="618" y="570" as="sourcePoint" />
            <mxPoint x="520" y="443" as="targetPoint" />
          </mxGeometry>
        </mxCell>
        <mxCell id="TJ26WCU68k0Eb_tC54Jo-5" value="M" style="text;html=1;align=center;verticalAlign=middle;whiteSpace=wrap;rounded=0;" parent="1" vertex="1">
          <mxGeometry x="625" y="510" width="60" height="30" as="geometry" />
        </mxCell>
        <mxCell id="6n0CZiTLzthfLFDjfn90-1" value="Price" style="ellipse;whiteSpace=wrap;html=1;" parent="1" vertex="1">
          <mxGeometry x="1185" y="690" width="90" height="50" as="geometry" />
        </mxCell>
        <mxCell id="6n0CZiTLzthfLFDjfn90-2" value="TotalPrice" style="ellipse;whiteSpace=wrap;html=1;dashed=1;dashPattern=8 8;" parent="1" vertex="1">
          <mxGeometry x="740" y="660" width="90" height="50" as="geometry" />
        </mxCell>
      </root>
    </mxGraphModel>
  </diagram>
</mxfile>
